<?xml version="1.0" encoding="UTF-8"?>
<svg id="Layer_2" data-name="Layer 2" xmlns="http://www.w3.org/2000/svg" viewBox="0 0 33.03 25.17">
  <defs>
    <style>
      .cls-1 {
        fill: #000000; /* Cambia el color a negro */
      }
    </style>
  </defs>
  <g id="Layer_2-2" data-name="Layer 2">
    <path class="cls-1" d="M27.98,2.1c-2.17-1-4.46-1.71-6.81-2.1-.3,.52-.64,1.22-.87,1.79-2.5-.37-5.05-.37-7.55,0-.27-.61-.57-1.21-.9-1.79-2.36,.4-4.65,1.11-6.82,2.11C.72,8.52-.44,14.78,.14,20.95c2.52,1.88,5.35,3.3,8.36,4.22,.68-.92,1.28-1.89,1.79-2.91-.98-.36-1.92-.82-2.82-1.35,.23-.18,.46-.36,.68-.53,5.29,2.5,11.43,2.5,16.72,0,.22,.19,.46,.36,.69,.54-.9,.53-1.84,.99-2.82,1.35,.51,1.01,1.11,1.98,1.79,2.9,3.01-.91,5.84-2.34,8.36-4.22,.68-7.14-1.18-13.35-4.91-18.84ZM11.03,17.16c-1.63,0-2.97-1.49-2.97-3.33s1.31-3.34,2.97-3.34,2.99,1.49,2.97,3.33-1.31,3.34-2.97,3.34Zm10.97,0c-1.63,0-2.97-1.49-2.97-3.33s1.31-3.34,2.97-3.34,2.99,1.49,2.97,3.33-1.31,3.34-2.97,3.34Z"/>
  </g>
</svg>
