<?xml version="1.0" encoding="UTF-8"?>
<svg id="Layer_2" data-name="Layer 2" xmlns="http://www.w3.org/2000/svg" viewBox="0 0 30.74 30.27">
  <defs>
    <style>
      .cls-1 {
        fill: #000000; /* Cambia el color a negro */
      }
    </style>
  </defs>
  <g id="Layer_2-2" data-name="Layer 2">
    <g>
      <path class="cls-1" d="M25.57,13.73l-.93,1.71c-.29,.52-.83,.85-1.43,.85s-1.12-.31-1.41-.81c.05,.35,.07,.71,.07,1.08,0,4.49-3.66,8.15-8.15,8.15s-8.15-3.66-8.15-8.15,3.66-8.15,8.15-8.15c.35,0,.69,.02,1.03,.06-.19-.27-.3-.59-.3-.94,0-.6,.32-1.14,.85-1.43l1.71-.93c.68-.37,1.3-.82,1.87-1.33-1.59-.65-3.33-1-5.16-1C6.14,2.83,0,8.97,0,16.55s6.14,13.72,13.72,13.72,13.72-6.14,13.72-13.72c0-1.56-.26-3.06-.74-4.46-.43,.5-.81,1.05-1.13,1.64Z"/>
      <path class="cls-1" d="M30.53,7.18l-1.71-.93c-1.82-1-3.33-2.5-4.32-4.32l-.93-1.71c-.08-.14-.22-.21-.35-.21s-.28,.07-.36,.21l-.93,1.71c-.5,.91-1.12,1.74-1.85,2.47-.73,.73-1.56,1.35-2.48,1.85l-1.71,.93c-.28,.15-.28,.56,0,.71l1.71,.93c1.82,1,3.33,2.5,4.32,4.32l.93,1.71c.08,.14,.22,.21,.36,.21s.28-.07,.35-.21l.93-1.71c.46-.85,1.03-1.62,1.7-2.31,.76-.8,1.65-1.48,2.63-2.01l1.71-.93c.28-.15,.28-.56,0-.71Z"/>
    </g>
  </g>
</svg>
