<?xml version="1.0" encoding="UTF-8"?>
<svg id="Layer_2" data-name="Layer 2" xmlns="http://www.w3.org/2000/svg" viewBox="0 0 24.81 24.81">
  <defs>
    <style>
      .cls-1 {
        fill: #000000; /* Cambia el color a negro */
      }
    </style>
  </defs>
  <g id="Layer_2-2" data-name="Layer 2">
    <g>
      <path class="cls-1" d="M15.44,0H1.85C.83,0,0,.83,0,1.85V15.44c0,.87,.71,1.58,1.58,1.58H3.79c.87,0,1.58-.71,1.58-1.58V5.38H15.44c.87,0,1.58-.71,1.58-1.58V1.58c0-.87-.71-1.58-1.58-1.58Z"/>
      <path class="cls-1" d="M9.36,24.81h13.6c1.02,0,1.85-.83,1.85-1.85V9.36c0-.87-.71-1.58-1.58-1.58h-2.21c-.87,0-1.58,.71-1.58,1.58v10.07H9.36c-.87,0-1.58,.71-1.58,1.58v2.21c0,.87,.71,1.58,1.58,1.58Z"/>
    </g>
  </g>
</svg>
